<svg xmlns="http://www.w3.org/2000/svg" xmlns:xlink="http://www.w3.org/1999/xlink" viewBox="0 0 301 301" version="1.1" width="250px" height="250px">
    <!-- Generator: Sketch 52.6 (67491) - http://www.bohemiancoding.com/sketch -->
    <title>lego</title>
    <desc>Created with Sketch.</desc>
    <g id="Page-1" stroke="none" stroke-width="1" fill="none" fill-rule="evenodd" fill-color-id="-1" stroke-color-id="-1" recolor-fill="true" recolor-stroke="true">
        <g id="lego" fill-color-id="-1" stroke-color-id="-1" recolor-fill="true" recolor-stroke="true">
            <polygon id="Path" fill="#FFFFFF" points="2.225 2.025 298.656 2.025 298.656 298.447 2.225 298.447" fill-color-id="3" stroke-color-id="-1" recolor-fill="true" recolor-stroke="true"/>
            <path d="M278.93,125.244 C278.43,134.482 275.497,145.988 272.909,153.674 C262.483,184.648 250.397,203.837 222.419,203.837 C214.183,203.837 199.554,201.655 194.181,187.001 L192.896,183.517 L190.603,186.423 C181.855,197.516 168.849,203.914 154.927,203.977 C144.249,204.028 135.662,200.449 130.117,193.635 L128.591,191.753 L126.973,193.538 C121.039,200.085 110.715,203.837 98.64,203.837 C89.161,203.837 80.975,200.629 75.589,194.781 L74.123,193.177 L72.592,194.729 C66.607,200.767 57.175,203.812 45.311,203.543 C30.915,203.198 22.153,195.159 21.873,182.041 C21.437,161.813 41.012,119.249 49.12,106.312 C54.387,97.669 61.618,93.478 71.244,93.478 C77.8,93.478 82.275,94.849 84.945,97.669 C87.364,100.239 87.847,102.404 88.058,107.606 L88.343,114.334 L91.892,108.615 C100.487,94.763 114.723,92.857 128.838,92.857 C138.65,92.857 147.21,96.461 150.647,102.051 L151.919,104.104 L153.756,102.542 C161.027,96.358 171.291,92.951 182.643,92.951 C195.038,92.951 204.049,96.031 209.424,102.12 C210.639,103.5 211.449,104.466 212.57,106.821 L213.951,109.719 L216.029,107.269 C223.886,97.961 234.634,93.244 247.968,93.244 C258.525,93.244 266.529,96.047 271.773,101.576 C278.359,108.52 279.301,118.284 278.93,125.244 Z M2.225,298.447 L298.656,298.447 L298.656,2.025 L2.225,2.025 L2.225,298.447 Z" id="Shape" fill="#FFED00FF" fill-rule="nonzero" fill-color-id="0" stroke-color-id="-1" recolor-fill="true" recolor-stroke="true"/>
            <path d="M287.277,136.621 C285.931,147.402 278.636,167.389 274.771,175.374 C264.37,196.79 250.482,213.247 223.736,213.247 C209.445,213.247 197.687,208.677 190.814,199.931 C180.749,208.745 168.285,213.369 154.873,213.369 C144.527,213.369 135.397,210.386 128.436,204.864 C120.743,210.281 110.375,213.3 98.873,213.3 C89.273,213.3 80.635,210.669 73.869,205.796 C66.391,210.755 56.589,213.224 45.078,212.946 C25.93,212.497 12.708,200.353 12.328,182.723 C11.824,159.295 31.554,116.42 40.856,101.568 C47.808,90.14 58.434,83.999 71.441,83.999 C85.565,83.999 90.688,88.036 93.202,93.167 C104.104,83.904 118.552,83.377 128.832,83.377 C140.192,83.377 147.311,86.388 153.371,91.218 C161.746,86.197 171.338,83.593 182.775,83.593 C197.402,83.593 208.254,86.991 215.826,94.479 C224.658,87.122 235.732,83.774 248.111,83.774 C264.488,83.774 275.261,89.683 281.593,98.481 C290.504,110.901 288.917,123.407 287.277,136.621 Z M2.225,298.447 L298.656,298.447 L298.656,2.025 L2.225,2.025 L2.225,298.447 Z" id="Shape" fill="#E3000BFF" fill-rule="nonzero" fill-color-id="1" stroke-color-id="-1" recolor-fill="true" recolor-stroke="true"/>
            <path d="M4.316,4.155 L296.49,4.155 L296.49,296.325 L4.316,296.325 L4.316,4.155 Z M0.185,300.456 L300.623,300.456 L300.623,0.015 L0.185,0.015 L0.185,300.456 Z" id="Shape" fill="#000000" fill-rule="nonzero" fill-color-id="2" stroke-color-id="-1" recolor-fill="true" recolor-stroke="true"/>
            <path d="M287.141,83.455 C285.229684,83.4533937 283.396452,84.2131829 282.046637,85.5663757 C280.696822,86.9195685 279.941617,88.754694 279.948,90.666 C279.944267,92.5742016 280.701124,94.405221 282.051086,95.7538689 C283.401047,97.1025167 285.232803,97.857591 287.141,97.852 C291.135,97.852 294.352,94.652 294.352,90.666 C294.355993,88.7523025 293.597547,86.9158354 292.244356,85.5626439 C290.891165,84.2094525 289.054697,83.4510067 287.141,83.455 Z M287.141,84.878 C290.34,84.878 292.946,87.465 292.946,90.666 C292.946,93.849 290.342,96.453 287.141,96.453 C283.95,96.453 281.379,93.849 281.379,90.666 C281.379,87.466 283.949,84.878 287.141,84.878 Z M290.807,94.417 L289.944,92.917 C289.194,91.598 288.979,91.399 288.348,91.166 L288.348,91.132 C289.608,90.986 290.36,90.166 290.36,89.044 C290.36,87.863 289.608,86.966 288.006,86.966 L284.297,86.966 L284.297,94.418 L285.831,94.418 L285.831,91.365 L286.106,91.365 C286.762,91.365 287.03,91.434 287.332,91.736 C287.626,92.038 288.083,92.667 288.351,93.202 L288.947,94.418 L290.807,94.417 Z M285.829,90.166 L285.829,88.13 L287.209,88.13 C288.229,88.13 288.762,88.484 288.762,89.14 C288.762,89.665 288.426,90.165 287.391,90.165 L285.829,90.166 Z M249.947,124.649 C249.636,132.326 238.39,163.023 234.396,169.793 C232.664,172.734 230.714,175.158 227.195,175.149 C224.125,175.149 222.761,172.975 222.675,170.492 C222.448,163.565 235.163,128.841 239.511,123.191 C241.443,120.214 243.599,119.733 246.066,119.767 C249.674,119.811 250.033,122.416 249.947,124.649 Z M270.441,137.182 C267.888,149.904 262.144,164.953 255.898,176.167 C245.72,194.47 233.361,197.03 222.572,196.901 C211.791,196.772 199.611,192.788 199.525,176.14 C199.457,164.185 204.613,147.314 208.997,136.256 C216.621,116.202 224.418,99.859 249.068,100.152 C277.809,100.49 272.686,126.055 270.441,137.182 Z M179.18,119.353 C175.014,119.353 172.296,121.984 170.27,124.83 C165.819,131.083 156.159,156.156 154.659,166.455 C153.641,173.512 156.679,174.942 160.014,174.942 C165.354,174.942 171.339,169.293 173.383,159.969 C173.383,159.969 163.213,159.718 166.018,150.703 C168.735,141.949 173.911,140.06 182.475,139.706 C199.354,139.017 197.682,151.479 196.335,158.121 C191.951,179.702 176.592,197.038 154.863,197.038 C139.989,197.038 130.761,188.802 130.761,173.64 C130.761,162.839 136.122,145.874 140.368,135.948 C149.412,114.816 158.9,100.024 183.068,100.024 C197.566,100.024 209.005,105.233 207.322,118.818 C206.097,128.789 201.111,134.645 192.049,135.352 C189.512,135.549 179.137,135.283 182.578,125.468 C183.775,122.044 184.275,119.353 179.18,119.353 Z M103.566,156.719 C102.566,159.417 100.686,165.05 99.168,171.028 C104.097,169.803 107.797,168.933 114.137,169.096 C121.365,169.268 125.984,172.271 125.984,178.239 C125.984,192.72 109.98,196.973 98.875,196.973 C86.679,196.973 75.975,190.029 75.975,176.702 C75.975,161.064 84.445,137.371 92.393,121.587 C102.161,102.197 112.141,99.618 129.322,99.618 C136.874,99.618 145.572,102.845 145.572,109.969 C145.572,119.854 137.201,123.622 128.895,124.106 C125.354,124.304 119.899,124.502 116.639,124.27 C116.639,124.27 113.874,128.488 110.933,135.983 C126.308,133.818 132.829,137.312 130.232,146.204 C126.725,158.21 116.31,159.004 103.566,156.719 Z M54.601,170.612 C69.639,168 73.422,173.442 72.943,178.462 C71.533,193.538 57.702,196.902 45.696,196.626 C36.989,196.419 29.161,192.436 28.942,182.326 C28.563,164.644 46.598,123.735 55.093,110.177 C59.009,103.735 63.787,100.56 71.407,100.56 C78.622,100.56 80.416,104.26 80.308,108.702 C80.028,120.543 60.88,156.545 54.601,170.612 Z M247.965,91.175 C232.44,91.175 221.71,97.333 214.447,105.924 C213.222,103.355 212.281,102.225 210.97,100.74 C205.027,94.021 195.461,90.881 182.636,90.881 C170.105,90.881 159.657,94.797 152.406,100.964 C148.637,94.84 139.662,90.777 128.833,90.777 C114.684,90.777 99.274,92.787 90.124,107.519 C89.912,102.213 89.425,99.411 86.441,96.246 C82.818,92.416 76.953,91.407 71.239,91.407 C60.824,91.407 52.992,95.953 47.355,105.218 C39.179,118.284 19.349,161.273 19.802,182.085 C20.082,195.54 29.109,205.227 45.255,205.606 C57.874,205.908 67.767,202.535 74.063,196.187 C79.709,202.311 88.329,205.916 98.637,205.916 C110.116,205.916 121.679,202.476 128.506,194.937 C134.259,201.992 143.302,206.098 154.933,206.044 C170.148,205.977 183.499,198.766 192.23,187.707 C197.007,200.739 209.152,205.915 222.418,205.915 C251.484,205.915 264.24,185.939 274.876,154.336 C277.273,147.211 280.467,135.335 281.001,125.357 C281.879,108.745 274.85,91.175 247.965,91.175 Z" id="Shape" fill="#000000" fill-rule="nonzero" fill-color-id="2" stroke-color-id="-1" recolor-fill="true" recolor-stroke="true"/>
        </g>
    </g>
</svg>